<svg width="32" height="11" viewBox="0 0 32 11" fill="none" xmlns="http://www.w3.org/2000/svg">
<path d="M6.11964 0C6.07625 0.000699855 6.03488 0.0184279 6.00445 0.0493584C5.97402 0.080289 5.95696 0.121942 5.95697 0.165333V8.05468C5.95697 8.07639 5.96125 8.09789 5.96956 8.11795C5.97786 8.13801 5.99004 8.15623 6.0054 8.17159C6.02075 8.18694 6.03897 8.19912 6.05903 8.20743C6.07909 8.21574 6.10059 8.22001 6.1223 8.22001H7.0823C7.10402 8.22001 7.12552 8.21574 7.14558 8.20743C7.16563 8.19912 7.18386 8.18694 7.19921 8.17159C7.21457 8.15623 7.22674 8.13801 7.23505 8.11795C7.24336 8.09789 7.24764 8.07639 7.24764 8.05468H7.24497V0.165333C7.24497 0.121484 7.22755 0.0794312 7.19655 0.0484251C7.16554 0.0174191 7.12349 0 7.07964 0H6.11964ZM8.37431 0C8.33046 0 8.2884 0.0174191 8.2574 0.0484251C8.22639 0.0794312 8.20897 0.121484 8.20897 0.165333V8.05468C8.20897 8.07639 8.21325 8.09789 8.22156 8.11795C8.22987 8.13801 8.24205 8.15623 8.2574 8.17159C8.27275 8.18694 8.29098 8.19912 8.31104 8.20743C8.3311 8.21574 8.3526 8.22001 8.37431 8.22001H9.33431C9.37793 8.21966 9.41964 8.20209 9.45036 8.17112C9.48107 8.14015 9.49831 8.0983 9.49831 8.05468V0.165333C9.49831 0.121942 9.48126 0.080289 9.45083 0.0493584C9.4204 0.0184279 9.37903 0.000699855 9.33564 0H8.37431ZM25.2637 2.368C24.6078 2.364 23.9768 2.6189 23.5077 3.07734C23.2791 3.29086 23.0979 3.55005 22.976 3.83809C22.854 4.12613 22.7939 4.43659 22.7997 4.74934V8.05601C22.8 8.0994 22.8174 8.14091 22.8481 8.17159C22.8788 8.20227 22.9203 8.21966 22.9637 8.22001H23.9237C23.9675 8.22001 24.0096 8.20259 24.0406 8.17159C24.0716 8.14058 24.089 8.09853 24.089 8.05468V4.81867C24.089 3.81601 24.7557 3.33467 25.841 3.55734C25.8689 3.56619 25.8986 3.56781 25.9274 3.56207C25.9561 3.55632 25.9829 3.54339 26.0052 3.52448C26.0276 3.50557 26.0448 3.4813 26.0553 3.45394C26.0657 3.42658 26.0691 3.39701 26.065 3.368V2.708C26.065 2.53467 26.0463 2.468 25.9317 2.43067C25.7113 2.38973 25.4878 2.36876 25.2637 2.368V2.368ZM19.0957 2.368C18.6499 2.36818 18.2101 2.47028 17.8098 2.66647C17.4096 2.86267 17.0595 3.14778 16.7863 3.50001C16.4236 4.02473 16.2294 4.64747 16.2294 5.28534C16.2294 5.92321 16.4236 6.54595 16.7863 7.07068C17.0551 7.42782 17.4043 7.71647 17.8056 7.91317C18.2069 8.10987 18.6489 8.20906 19.0957 8.20268C19.6812 8.20449 20.254 8.03182 20.741 7.70668V8.41335C20.741 9.36935 19.905 9.54401 19.3677 9.57735C18.9995 9.58955 18.631 9.56947 18.2663 9.51735C18.1197 9.49468 18.0157 9.51735 18.0157 9.67601V10.524C18.0177 10.5623 18.0349 10.5983 18.0633 10.624C18.0918 10.6497 18.1293 10.6632 18.1677 10.6613C19.4117 10.768 20.2477 10.7467 20.877 10.3867C21.3188 10.1266 21.6471 9.71029 21.797 9.22001C21.9075 8.84167 21.9601 8.44877 21.953 8.05468V5.28534H21.9557C21.968 4.64641 21.7755 4.02032 21.4063 3.49867C21.1329 3.14651 20.7825 2.86155 20.382 2.66558C19.9815 2.46961 19.5415 2.36782 19.0957 2.368V2.368ZM2.75563 2.37067C2.06995 2.36793 1.39586 2.54738 0.802296 2.89067C0.783832 2.90164 0.768573 2.91727 0.758043 2.93599C0.747514 2.95471 0.742083 2.97586 0.742296 2.99734L0.792962 3.83734C0.797392 3.86367 0.808797 3.88832 0.82599 3.90874C0.843184 3.92916 0.865538 3.9446 0.890724 3.95345C0.915911 3.9623 0.943009 3.96424 0.969197 3.95906C0.995386 3.95388 1.01971 3.94178 1.03963 3.92401C1.87563 3.408 2.87963 3.31201 3.39163 3.57067C3.5324 3.6518 3.64838 3.76978 3.72709 3.91192C3.80579 4.05406 3.84424 4.21497 3.8383 4.37734V4.50001H2.4423C1.8423 4.50001 0.00229461 4.72267 0.00229461 6.41201V6.43068C-0.0113344 6.68795 0.0358929 6.94482 0.140143 7.18043C0.244393 7.41603 0.402728 7.62373 0.602295 7.78668C1.03686 8.09292 1.56218 8.24328 2.09296 8.21335H4.91697C4.93879 8.21335 4.9604 8.20903 4.98055 8.20063C5.0007 8.19224 5.01898 8.17994 5.03435 8.16445C5.04972 8.14896 5.06187 8.13057 5.0701 8.11036C5.07833 8.09014 5.08248 8.0685 5.0823 8.04668V4.70001L5.07964 4.70534C5.07964 3.94534 4.9103 3.36667 4.54363 2.968C4.1783 2.568 3.44097 2.368 2.75697 2.368L2.75563 2.37067ZM13.0316 2.37067C11.325 2.37067 10.5783 3.51467 10.3383 4.48401C10.2724 4.74555 10.2392 5.01428 10.2396 5.28401C10.2309 5.92161 10.4231 6.54579 10.789 7.06801C11.0625 7.42029 11.4128 7.70549 11.8132 7.90189C12.2137 8.09829 12.6536 8.20071 13.0996 8.20135C14.021 8.23335 14.637 8.07735 15.1076 7.80935C15.1535 7.7798 15.1889 7.73666 15.209 7.68598C15.2291 7.63529 15.2328 7.57959 15.2196 7.52668V6.78268C15.2196 6.63068 15.1276 6.56001 14.997 6.65201C14.4455 7.00495 13.7912 7.16183 13.1396 7.09734C12.7687 7.09238 12.4123 6.9519 12.1377 6.70237C11.8631 6.45284 11.6893 6.1115 11.649 5.74268H15.4423C15.4835 5.74268 15.5229 5.72642 15.5522 5.69746C15.5814 5.66849 15.598 5.62915 15.5983 5.58801C15.665 4.55067 15.365 2.37067 13.0316 2.37067V2.37067ZM29.1383 2.37067C28.6929 2.3709 28.2534 2.47288 27.8535 2.66883C27.4535 2.86479 27.1035 3.14953 26.8303 3.50134C26.4637 4.02422 26.2715 4.64947 26.281 5.28801C26.2718 5.92609 26.464 6.55083 26.8303 7.07334C27.1037 7.42554 27.4539 7.71057 27.8543 7.90665C28.2546 8.10274 28.6945 8.20467 29.1403 8.20467C29.5861 8.20467 30.026 8.10274 30.4264 7.90665C30.8268 7.71057 31.177 7.42554 31.4503 7.07334C31.8168 6.55038 32.009 5.92518 31.9997 5.28667C32.0087 4.64862 31.8165 4.02393 31.4503 3.50134C31.1769 3.14918 30.8265 2.86422 30.426 2.66825C30.0255 2.47228 29.5855 2.37049 29.1397 2.37067H29.1383ZM19.0957 3.48134C20.6383 3.48134 20.6903 5.05467 20.6903 5.28267C20.6903 5.51067 20.6383 7.08401 19.0957 7.08401C18.4063 7.08401 17.909 6.58001 17.6997 5.95201C17.5513 5.51811 17.5513 5.04724 17.6997 4.61334C17.909 3.98667 18.4063 3.48134 19.0957 3.48134ZM13.0343 3.48667C13.1976 3.47671 13.3612 3.50182 13.514 3.5603C13.6668 3.61878 13.8053 3.70928 13.9202 3.82572C14.0352 3.94217 14.1238 4.08186 14.1803 4.23542C14.2368 4.38898 14.2597 4.55284 14.2476 4.71601H11.6716C11.6795 4.54527 11.7211 4.37778 11.7942 4.22327C11.8673 4.06876 11.9703 3.93031 12.0973 3.81594C12.2244 3.70157 12.3728 3.61357 12.5341 3.55705C12.6954 3.50053 12.8664 3.4766 13.037 3.48667H13.0343ZM29.1383 3.48667C29.825 3.47067 30.325 3.99067 30.5357 4.61734C30.6836 5.05085 30.6836 5.52117 30.5357 5.95467V5.95734C30.325 6.58401 29.8277 7.07334 29.1383 7.08801C28.4477 7.10401 27.9517 6.58401 27.7423 5.95734C27.5937 5.52304 27.5937 5.05164 27.7423 4.61734C27.953 3.99067 28.449 3.50134 29.1383 3.48667V3.48667ZM2.51963 5.52001H3.83963V7.18134H2.17296C1.95881 7.17522 1.75188 7.10252 1.58096 6.97334C1.49285 6.91174 1.42123 6.82941 1.3724 6.73362C1.32358 6.63783 1.29904 6.53151 1.30096 6.42401C1.30096 6.12268 1.50496 5.52001 2.51963 5.52001V5.52001Z" fill="black"/>
</svg>
