<svg width="32" height="32" viewBox="0 0 32 32" fill="none" xmlns="http://www.w3.org/2000/svg">
<path d="M25.1328 12.3328C25.4332 12.0324 25.602 11.6249 25.602 11.2C25.602 10.7751 25.4332 10.3676 25.1328 10.0672C24.8324 9.76676 24.4249 9.59798 24 9.59798C23.5751 9.59798 23.1676 9.76676 22.8672 10.0672L12.8 20.1376L9.1328 16.4672C8.83236 16.1668 8.42488 15.998 8 15.998C7.57512 15.998 7.16764 16.1668 6.8672 16.4672C6.56676 16.7676 6.39798 17.1751 6.39798 17.6C6.39798 18.0249 6.56676 18.4324 6.8672 18.7328L11.6672 23.5328C11.8158 23.6818 11.9924 23.8 12.1868 23.8807C12.3812 23.9613 12.5895 24.0029 12.8 24.0029C13.0105 24.0029 13.2188 23.9613 13.4132 23.8807C13.6076 23.8 13.7842 23.6818 13.9328 23.5328L25.1328 12.3328ZM0 4.8C0 3.52696 0.505713 2.30606 1.40589 1.40589C2.30606 0.505713 3.52696 0 4.8 0H27.2C28.473 0 29.6939 0.505713 30.5941 1.40589C31.4943 2.30606 32 3.52696 32 4.8V27.2C32 28.473 31.4943 29.6939 30.5941 30.5941C29.6939 31.4943 28.473 32 27.2 32H4.8C3.52696 32 2.30606 31.4943 1.40589 30.5941C0.505713 29.6939 0 28.473 0 27.2V4.8ZM27.2 3.2H4.8C4.37565 3.2 3.96869 3.36857 3.66863 3.66863C3.36857 3.96869 3.2 4.37565 3.2 4.8V27.2C3.2 27.6243 3.36857 28.0313 3.66863 28.3314C3.96869 28.6314 4.37565 28.8 4.8 28.8H27.2C27.6243 28.8 28.0313 28.6314 28.3314 28.3314C28.6314 28.0313 28.8 27.6243 28.8 27.2V4.8C28.8 4.37565 28.6314 3.96869 28.3314 3.66863C28.0313 3.36857 27.6243 3.2 27.2 3.2Z" fill="#FF0000"/>
</svg>
