<svg width="24" height="23" viewBox="0 0 24 23" fill="none" xmlns="http://www.w3.org/2000/svg">
<path d="M11.1948 13.7517L2.544 22.4001C2.4333 22.5147 2.30089 22.6061 2.15449 22.669C2.00808 22.7319 1.85062 22.765 1.69128 22.7664C1.53195 22.7677 1.37393 22.7374 1.22646 22.677C1.07898 22.6167 0.944997 22.5276 0.832326 22.4149C0.719655 22.3023 0.630551 22.1683 0.570214 22.0208C0.509877 21.8733 0.479515 21.7153 0.480899 21.556C0.482284 21.3966 0.515388 21.2392 0.578278 21.0928C0.641169 20.9464 0.732588 20.8139 0.8472 20.7033L9.636 11.9145C9.56758 11.5334 9.59234 11.1415 9.70817 10.7722C9.82399 10.4028 10.0274 10.0669 10.3012 9.79321C10.5749 9.51949 10.9108 9.31604 11.2801 9.20022C11.6495 9.0844 12.0414 9.05964 12.4224 9.12805L21.2148 0.336854C21.4411 0.118264 21.7442 -0.00268874 22.0589 4.53631e-05C22.3735 0.00277947 22.6745 0.128982 22.897 0.351472C23.1195 0.573962 23.2457 0.874937 23.2484 1.18957C23.2511 1.50421 23.1302 1.80733 22.9116 2.03365L14.262 10.6857C14.4148 11.1135 14.4429 11.576 14.3432 12.0193C14.2435 12.4625 14.02 12.8684 13.6988 13.1896C13.3775 13.5109 12.9717 13.7344 12.5284 13.8341C12.0851 13.9338 11.6227 13.9056 11.1948 13.7529V13.7517ZM20.2428 6.39925C22.5 7.70005 24 9.49765 24 11.4897C24 15.4665 18.0504 18.6813 12 18.6897C10.7688 18.6896 9.5409 18.5609 8.3364 18.3057L10.5696 16.0737C11.4058 16.3349 12.2975 16.3624 13.1481 16.1531C13.9988 15.9438 14.776 15.5057 15.3954 14.8863C16.0148 14.2668 16.453 13.4896 16.6623 12.639C16.8716 11.7883 16.8441 10.8966 16.5828 10.0605L20.2428 6.39925V6.39925ZM15.2508 4.60405L13.05 6.80485C12.2604 6.6276 11.4388 6.65286 10.6616 6.87828C9.88437 7.1037 9.17676 7.52196 8.60453 8.09419C8.03231 8.66641 7.61404 9.37402 7.38863 10.1512C7.16321 10.9285 7.13795 11.7501 7.3152 12.5397L3.4428 16.4097C1.3608 15.1233 0 13.3917 0 11.4897C0 7.51285 5.9808 4.26925 12 4.28965C13.0968 4.29325 14.1924 4.40245 15.2508 4.60405Z" fill="#001A23"/>
</svg>
