<svg width="66" height="65" viewBox="0 0 66 65" fill="none" xmlns="http://www.w3.org/2000/svg">
<path d="M62.5494 25.3296H57.6264C57.6212 20.7613 55.8041 16.3817 52.5738 13.1514C49.3436 9.92112 44.9639 8.10406 40.3956 8.09885V3.17577C46.2692 3.18229 51.9003 5.51844 56.0535 9.67168C60.2068 13.8249 62.5429 19.4561 62.5494 25.3296V25.3296ZM57.6264 64.7142H57.2079C8.83867 61.9327 1.97098 21.1204 1.01098 8.66501C0.860939 6.71238 1.49266 4.78013 2.76719 3.29325C4.04173 1.80637 5.85468 0.886651 7.80729 0.73639C8.00257 0.72162 8.19867 0.714236 8.39559 0.714236H21.3679C22.3539 0.713281 23.3174 1.00841 24.1338 1.5614C24.9501 2.11439 25.5815 2.89976 25.9464 3.81577L29.6879 13.0219C30.0481 13.9168 30.1375 14.8978 29.945 15.8431C29.7524 16.7883 29.2864 17.6562 28.6048 18.3389L23.3617 23.6312C24.1774 28.2867 26.4052 32.5788 29.7429 35.9253C33.0806 39.2719 37.3668 41.5109 42.0202 42.3388L47.3617 37.0465C48.0547 36.3725 48.9307 35.9173 49.8806 35.7378C50.8305 35.5584 51.8122 35.6625 52.7033 36.0373L61.9833 39.7542C62.8855 40.1306 63.6552 40.767 64.1944 41.5823C64.7336 42.3977 65.0179 43.3552 65.011 44.3327V57.3296C65.011 59.2881 64.233 61.1664 62.8481 62.5513C61.4632 63.9362 59.5849 64.7142 57.6264 64.7142ZM8.39559 5.63731C8.07234 5.63634 7.75206 5.69905 7.45304 5.82186C7.15402 5.94466 6.88212 6.12517 6.65286 6.35306C6.4236 6.58095 6.24147 6.85176 6.11687 7.15004C5.99227 7.44831 5.92764 7.76821 5.92667 8.09147C5.92667 8.16039 5.92913 8.22849 5.93406 8.29577C7.06636 22.8681 14.3279 57.3296 57.4787 59.7912C58.1302 59.8302 58.7705 59.6089 59.2589 59.1759C59.7473 58.7429 60.0437 58.1337 60.083 57.4822L60.0879 57.3296V44.3327L50.8079 40.6158L43.7433 47.6312L42.5617 47.4835C21.1464 44.8004 18.2417 23.385 18.2417 23.1635L18.0941 21.9819L25.0848 14.9173L21.3925 5.63731H8.39559Z" fill="#B80000"/>
</svg>
