<svg width="32" height="23" viewBox="0 0 32 23" fill="none" xmlns="http://www.w3.org/2000/svg">
<path d="M29.7143 0H2.28571C1.67951 0 1.09812 0.240816 0.66947 0.66947C0.240816 1.09812 0 1.67951 0 2.28571V20.5714C0 21.1776 0.240816 21.759 0.66947 22.1877C1.09812 22.6163 1.67951 22.8571 2.28571 22.8571H29.7143C30.3205 22.8571 30.9019 22.6163 31.3305 22.1877C31.7592 21.759 32 21.1776 32 20.5714V2.28571C32 1.67951 31.7592 1.09812 31.3305 0.66947C30.9019 0.240816 30.3205 0 29.7143 0ZM27.2 2.28571L16 10.0343L4.8 2.28571H27.2ZM2.28571 20.5714V3.32571L15.3486 12.3657C15.5399 12.4984 15.7672 12.5696 16 12.5696C16.2328 12.5696 16.4601 12.4984 16.6514 12.3657L29.7143 3.32571V20.5714H2.28571Z" fill="#74D2D0"/>
</svg>
