<svg width="64" height="65" viewBox="0 0 64 65" fill="none" xmlns="http://www.w3.org/2000/svg">
<path d="M18.6667 0.692383C16.5449 0.692383 14.5101 1.53524 13.0098 3.03553C11.5095 4.53582 10.6667 6.57065 10.6667 8.69238V22.0257C7.83769 22.0257 5.12458 23.1495 3.12419 25.1499C1.12381 27.1503 0 29.8634 0 32.6924V56.6924C0 58.8141 0.842855 60.8489 2.34315 62.3492C3.84344 63.8495 5.87827 64.6924 8 64.6924H40C38.8135 63.1151 37.9936 61.2931 37.6 59.3591H8C7.29276 59.3591 6.61448 59.0781 6.11438 58.578C5.61429 58.0779 5.33333 57.3996 5.33333 56.6924V32.6924C5.33333 31.2779 5.89524 29.9213 6.89543 28.9211C7.89562 27.921 9.25218 27.3591 10.6667 27.3591H37.6C38 25.3857 38.832 23.5724 40 22.0257H16V8.69238C16 7.98514 16.281 7.30686 16.781 6.80677C17.2811 6.30667 17.9594 6.02572 18.6667 6.02572H45.3333C46.0406 6.02572 46.7189 6.30667 47.219 6.80677C47.7191 7.30686 48 7.98514 48 8.69238V16.9591C48.864 16.7831 49.7547 16.6924 50.6667 16.6924H53.3333V8.69238C53.3333 6.57065 52.4905 4.53582 50.9902 3.03553C49.4899 1.53524 47.4551 0.692383 45.3333 0.692383H18.6667ZM50.6667 22.0257C48.5449 22.0257 46.5101 22.8686 45.0098 24.3689C43.5095 25.8692 42.6667 27.904 42.6667 30.0257V56.6924C42.6667 58.8141 43.5095 60.8489 45.0098 62.3492C46.5101 63.8495 48.5449 64.6924 50.6667 64.6924H56C58.1217 64.6924 60.1566 63.8495 61.6569 62.3492C63.1571 60.8489 64 58.8141 64 56.6924V30.0257C64 27.904 63.1571 25.8692 61.6569 24.3689C60.1566 22.8686 58.1217 22.0257 56 22.0257H50.6667ZM48 30.0257C48 29.3185 48.281 28.6402 48.781 28.1401C49.2811 27.64 49.9594 27.3591 50.6667 27.3591H56C56.7072 27.3591 57.3855 27.64 57.8856 28.1401C58.3857 28.6402 58.6667 29.3185 58.6667 30.0257V56.6924C58.6667 57.3996 58.3857 58.0779 57.8856 58.578C57.3855 59.0781 56.7072 59.3591 56 59.3591H50.6667C49.9594 59.3591 49.2811 59.0781 48.781 58.578C48.281 58.0779 48 57.3996 48 56.6924V30.0257ZM16 35.3591C16 36.0663 15.719 36.7446 15.219 37.2447C14.7189 37.7448 14.0406 38.0257 13.3333 38.0257C12.6261 38.0257 11.9478 37.7448 11.4477 37.2447C10.9476 36.7446 10.6667 36.0663 10.6667 35.3591C10.6667 34.6518 10.9476 33.9735 11.4477 33.4734C11.9478 32.9733 12.6261 32.6924 13.3333 32.6924C14.0406 32.6924 14.7189 32.9733 15.219 33.4734C15.719 33.9735 16 34.6518 16 35.3591ZM13.3333 48.6924C14.0406 48.6924 14.7189 48.4114 15.219 47.9113C15.719 47.4112 16 46.733 16 46.0257C16 45.3185 15.719 44.6402 15.219 44.1401C14.7189 43.64 14.0406 43.3591 13.3333 43.3591C12.6261 43.3591 11.9478 43.64 11.4477 44.1401C10.9476 44.6402 10.6667 45.3185 10.6667 46.0257C10.6667 46.733 10.9476 47.4112 11.4477 47.9113C11.9478 48.4114 12.6261 48.6924 13.3333 48.6924V48.6924ZM26.6667 35.3591C26.6667 36.0663 26.3857 36.7446 25.8856 37.2447C25.3855 37.7448 24.7072 38.0257 24 38.0257C23.2928 38.0257 22.6145 37.7448 22.1144 37.2447C21.6143 36.7446 21.3333 36.0663 21.3333 35.3591C21.3333 34.6518 21.6143 33.9735 22.1144 33.4734C22.6145 32.9733 23.2928 32.6924 24 32.6924C24.7072 32.6924 25.3855 32.9733 25.8856 33.4734C26.3857 33.9735 26.6667 34.6518 26.6667 35.3591ZM24 48.6924C24.7072 48.6924 25.3855 48.4114 25.8856 47.9113C26.3857 47.4112 26.6667 46.733 26.6667 46.0257C26.6667 45.3185 26.3857 44.6402 25.8856 44.1401C25.3855 43.64 24.7072 43.3591 24 43.3591C23.2928 43.3591 22.6145 43.64 22.1144 44.1401C21.6143 44.6402 21.3333 45.3185 21.3333 46.0257C21.3333 46.733 21.6143 47.4112 22.1144 47.9113C22.6145 48.4114 23.2928 48.6924 24 48.6924V48.6924Z" fill="#B80000"/>
</svg>
