<svg width="43" height="65" viewBox="0 0 43 65" fill="none" xmlns="http://www.w3.org/2000/svg">
<path d="M37.5001 0.692383H5.50014C4.28772 0.692383 3.12496 1.17401 2.26765 2.03132C1.41034 2.88863 0.928711 4.05139 0.928711 5.26381V60.121C0.928711 61.3334 1.41034 62.4961 2.26765 63.3534C3.12496 64.2108 4.28772 64.6924 5.50014 64.6924H37.5001C38.7126 64.6924 39.8753 64.2108 40.7326 63.3534C41.5899 62.4961 42.0716 61.3334 42.0716 60.121V5.26381C42.0716 4.05139 41.5899 2.88863 40.7326 2.03132C39.8753 1.17401 38.7126 0.692383 37.5001 0.692383V0.692383ZM23.7859 60.121H19.2144V55.5495H23.7859V60.121ZM5.50014 50.9781V5.26381H37.5001V50.9781H5.50014Z" fill="#B80000"/>
</svg>
