<svg width="64" height="46" viewBox="0 0 64 46" fill="none" xmlns="http://www.w3.org/2000/svg">
<path d="M59.4286 0H4.57143C3.35901 0 2.19625 0.481631 1.33894 1.33894C0.481631 2.19625 0 3.35901 0 4.57143V41.1429C0 42.3553 0.481631 43.518 1.33894 44.3753C2.19625 45.2327 3.35901 45.7143 4.57143 45.7143H59.4286C60.641 45.7143 61.8038 45.2327 62.6611 44.3753C63.5184 43.518 64 42.3553 64 41.1429V4.57143C64 3.35901 63.5184 2.19625 62.6611 1.33894C61.8038 0.481631 60.641 0 59.4286 0ZM54.4 4.57143L32 20.0686L9.6 4.57143H54.4ZM4.57143 41.1429V6.65143L30.6971 24.7314C31.0798 24.9969 31.5343 25.1391 32 25.1391C32.4657 25.1391 32.9202 24.9969 33.3029 24.7314L59.4286 6.65143V41.1429H4.57143Z" fill="#B80000"/>
</svg>
