<svg width="64" height="55" viewBox="0 0 64 55" fill="none" xmlns="http://www.w3.org/2000/svg">
<path d="M56.6202 0.714233H37.2555L32.8353 9.55463H7.99805V44.9162H61.0404V0.714233H56.6202ZM56.6202 40.075H12.8392V13.9748H56.6202V40.075ZM56.6202 9.55463H39.3604L41.4653 5.13443H56.4097V9.55463H56.6202Z" fill="#B80000"/>
<path d="M53.0424 17.974H0L7.99845 44.9162H61.0408L53.0424 17.974Z" fill="#B80000"/>
<path d="M30.6994 10.9734C31.1835 10.4535 31.9623 10.6304 32.5832 10.5988C33.3465 10.5458 34.1135 10.5861 34.867 10.7188C35.831 11.1966 35.5595 12.4363 35.7721 13.3098C36.6852 13.5606 37.5672 13.9136 38.4011 14.3623C38.846 13.9608 39.3218 13.5949 39.8239 13.2677C40.0657 13.1463 40.3406 13.1073 40.6067 13.1567C40.8727 13.2061 41.1153 13.3412 41.2973 13.5414C41.8741 14.0928 42.4255 14.6717 42.996 15.2253C43.1933 15.379 43.3471 15.5817 43.4419 15.8132C43.5368 16.0447 43.5696 16.297 43.5369 16.545C43.3496 17.2817 42.6108 17.709 42.3371 18.391C42.7139 19.1706 43.0292 19.9786 43.2801 20.8073C43.9116 20.9315 44.5599 20.9399 45.1871 21.0873C45.4459 21.1844 45.667 21.3614 45.8184 21.5927C45.9698 21.8239 46.0435 22.0973 46.0291 22.3733C46.0291 23.2574 46.0543 24.1435 46.0291 25.0276C46.0246 25.2773 45.9443 25.5197 45.7988 25.7227C45.6533 25.9257 45.4495 26.0797 45.2145 26.1642C44.5689 26.2956 43.9169 26.3932 43.2612 26.4568C42.9987 27.2897 42.6838 28.1053 42.3182 28.8984C42.5287 29.7403 43.6232 30.2245 43.5643 31.1906C43.4696 31.9378 42.756 32.3546 42.3014 32.8745C41.7225 33.3796 41.2742 34.1374 40.4701 34.3016C39.5082 34.3016 38.9841 33.2976 38.1716 32.965C37.5518 33.2824 36.9087 33.5519 36.2478 33.7711C36.0247 33.8785 35.5995 33.8827 35.6395 34.2342C35.5006 35.1119 35.6816 36.398 34.6334 36.76C33.6471 36.8426 32.6567 36.8658 31.6676 36.8295C31.3782 36.8641 31.0857 36.7974 30.8398 36.6409C30.5938 36.4844 30.4096 36.2476 30.3184 35.9707C30.1788 35.2881 30.086 34.5969 30.0406 33.9016C29.2363 33.6165 28.448 33.2884 27.6789 32.9187C26.9906 33.2281 26.5339 33.929 25.8182 34.2005C25.6265 34.2564 25.4243 34.2664 25.228 34.2299C25.0317 34.1933 24.8467 34.1112 24.6879 33.99C24.1028 33.4975 23.6018 32.9124 23.044 32.3904C22.6588 32.0073 22.1831 31.5484 22.2442 30.9591C22.4357 30.1045 23.2545 29.6035 23.6123 28.8395C23.2715 28.114 22.9776 27.3673 22.7325 26.6041C21.798 26.3305 20.4635 26.6904 19.912 25.6696C19.7843 24.8942 19.742 24.1072 19.7857 23.3226C19.7983 22.6575 19.6573 21.8008 20.3119 21.3799C21.0449 21.115 21.8165 20.9728 22.5957 20.9589C22.8133 20.0972 23.1431 19.2678 23.5766 18.492C23.0971 17.9226 22.6668 17.3135 22.2905 16.6713C22.2234 16.4292 22.2291 16.1727 22.307 15.9338C22.3848 15.695 22.5314 15.4844 22.7283 15.3284C23.2608 14.7832 23.806 14.2507 24.3427 13.7077C24.4964 13.5147 24.6966 13.3641 24.9245 13.2698C25.1524 13.1755 25.4006 13.1408 25.6456 13.1688C26.3929 13.3372 26.8222 14.0907 27.5084 14.3623C28.3464 13.9515 29.2089 13.593 30.0911 13.2888C30.4131 12.5626 30.1185 11.5986 30.6994 10.9734V10.9734ZM32.2086 18.9719C31.4227 19.1093 30.6836 19.4411 30.0587 19.937C29.4337 20.4329 28.9427 21.0772 28.6303 21.8114C28.2913 22.6817 28.2024 23.6295 28.3735 24.5477C28.5601 25.4441 29.0058 26.2661 29.6553 26.9115C30.3049 27.5569 31.1296 27.9973 32.0273 28.1781C32.9249 28.3589 33.8559 28.2722 34.7046 27.9286C35.5534 27.5849 36.2826 26.9996 36.8016 26.2453C37.3207 25.491 37.6068 24.6008 37.6244 23.6853C37.642 22.7698 37.3904 21.8693 36.9008 21.0955C36.4111 20.3217 35.705 19.7088 34.8701 19.3328C34.0352 18.9568 33.1083 18.8342 32.2044 18.9803L32.2086 18.9719Z" fill="#F0FAFA"/>
<path d="M52.3142 24.1329C52.9457 24.0929 53.6908 23.8635 54.2339 24.3244C54.7306 24.7812 54.7074 25.5242 54.8653 26.1325C55.6231 26.2978 56.3638 26.5339 57.0775 26.8376C57.5427 26.4272 57.9489 25.8273 58.612 25.7557C59.2013 25.7136 59.6286 26.1767 60.0517 26.5177C60.5222 26.8561 60.9363 27.2667 61.2788 27.7343C61.5798 28.532 60.9252 29.2077 60.5232 29.8097C60.9034 30.4377 61.2328 31.0951 61.5082 31.7756C62.2807 31.824 63.3689 31.6493 63.7331 32.5376C63.9486 33.412 64.0344 34.3134 63.9878 35.2128C63.7899 36.1642 62.6554 36.2 61.8829 36.3705C61.7545 37.0756 61.4619 37.7324 61.2704 38.4185C61.4809 39.0205 62.226 39.3194 62.367 39.9824C62.5186 40.7086 61.8745 41.2243 61.4767 41.74C61.0894 42.1483 60.7778 42.744 60.1738 42.8535C59.3886 42.9945 58.8224 42.3251 58.1868 41.9947C57.5636 42.3957 56.9022 42.7341 56.2124 43.005C56.1577 43.8154 56.3598 45.0067 55.402 45.3646C54.5108 45.5723 53.5931 45.6432 52.6805 45.575C51.7396 45.274 51.7943 44.1332 51.5838 43.3481C50.885 43.2197 50.243 42.8892 49.5505 42.7587C48.9191 43.205 48.4055 44.1185 47.5046 43.8891C46.9428 43.5925 46.4284 43.2137 45.9786 42.7651C45.6082 42.4325 45.1156 42.0831 45.1367 41.5274C45.0988 40.7886 45.8397 40.334 45.9786 39.6625C45.7281 39.0563 45.3472 38.509 45.1072 37.8923C44.4505 37.8334 43.7012 38.0081 43.1265 37.6061C42.5982 37.2461 42.6277 36.5389 42.5519 35.9748C42.4632 35.3981 42.4703 34.8106 42.573 34.2362C42.9434 33.4511 43.9327 33.4911 44.6547 33.2848C44.7982 32.5648 45.0096 31.86 45.2861 31.1799C44.8651 30.6853 44.2568 30.2748 44.1116 29.6055C44.0295 28.9867 44.5326 28.5215 44.8862 28.0837C45.2266 27.5933 45.6548 27.1702 46.1491 26.8355C46.9384 26.5745 47.572 27.2291 48.1824 27.6122C48.8328 27.1864 49.5281 26.8335 50.2557 26.5598C50.422 25.8883 50.161 25.0443 50.7377 24.537C51.1481 24.1181 51.7796 24.2044 52.3142 24.1329V24.1329ZM52.5247 30.9947C51.6813 31.1607 50.9179 31.6046 50.3565 32.2554C49.795 32.9063 49.468 33.7266 49.4276 34.5852C49.3872 35.4438 49.6357 36.2912 50.1336 36.9919C50.6314 37.6926 51.3498 38.2062 52.1738 38.4506C52.9979 38.6951 53.8801 38.6562 54.6795 38.3403C55.4789 38.0243 56.1493 37.4495 56.5836 36.7078C57.0179 35.966 57.191 35.1 57.0752 34.2483C56.9595 33.3966 56.5616 32.6082 55.9451 32.0092C55.4994 31.5763 54.9555 31.2578 54.3598 31.0811C53.764 30.9044 53.1344 30.8747 52.5247 30.9947V30.9947ZM36.3405 36.9683C37.0082 36.8655 37.6885 36.8762 38.3527 36.9999C38.6458 37.1621 38.8816 37.411 39.0278 37.7124C39.174 38.0139 39.2235 38.3531 39.1694 38.6837C39.7623 38.9125 40.3433 39.171 40.9101 39.4583C41.3311 39.1679 41.7521 38.7406 42.3014 38.7995C42.8024 38.8185 43.1434 39.2394 43.4717 39.5573C43.819 39.9277 44.2695 40.3255 44.2274 40.8833C44.2021 41.3885 43.7769 41.7253 43.5475 42.1462C43.7139 42.7081 43.9251 43.2557 44.179 43.7838C44.8104 43.9248 45.625 43.9711 45.8628 44.6994C45.9752 45.3492 45.9752 46.0135 45.8628 46.6633C45.6524 47.4421 44.7515 47.5052 44.0821 47.581C43.899 48.1472 43.6085 48.6671 43.4065 49.2249C43.617 49.6879 44.1158 50.05 44.0927 50.6078C44.1348 51.134 43.7096 51.5044 43.377 51.8454C43.0697 52.239 42.639 52.5177 42.1541 52.6368C41.5542 52.6726 41.1143 52.2032 40.6807 51.8517C40.1175 52.0983 39.5421 52.3161 38.9568 52.5042C38.8768 53.1967 38.801 54.1123 37.9991 54.346C37.326 54.4542 36.6383 54.4306 35.9742 54.2765C35.2291 53.9629 35.2523 53.0725 35.1323 52.399C34.6017 52.2287 34.0897 52.0052 33.6042 51.7317C33.1116 52.058 32.6338 52.6074 31.9834 52.5105C31.5358 52.3594 31.1427 52.0798 30.8531 51.7065C30.5248 51.3613 30.1185 50.9866 30.1417 50.4688C30.1417 49.8858 30.6174 49.4732 30.952 49.0502C30.7205 48.5345 30.51 47.9977 30.308 47.482C29.647 47.4336 28.8156 47.3621 28.5167 46.6633C28.3655 45.9698 28.3655 45.2519 28.5167 44.5584C28.8009 43.8427 29.6407 43.7501 30.308 43.7165C30.489 43.1671 30.7289 42.6409 30.9394 42.102C30.7689 41.6242 30.2343 41.2896 30.2638 40.736C30.1859 40.1529 30.6721 39.7488 31.0383 39.3783C31.3399 39.0021 31.7649 38.7448 32.2381 38.6522C32.8022 38.6164 33.1664 39.1173 33.6315 39.3426C34.2293 39.1321 34.7913 38.8437 35.3954 38.6585C35.5154 38.0165 35.6164 37.1956 36.3405 36.9683V36.9683ZM36.5173 42.5483C35.8966 42.6946 35.3358 43.0281 34.9109 43.5037C34.4861 43.9793 34.2177 44.574 34.142 45.2073C34.0664 45.8405 34.1872 46.4817 34.488 47.044C34.7889 47.6063 35.2553 48.0625 35.8241 48.3509C36.3929 48.6393 37.0366 48.746 37.668 48.6564C38.2994 48.5668 38.888 48.2853 39.3542 47.8501C39.8203 47.4149 40.1414 46.8469 40.274 46.2231C40.4066 45.5993 40.3443 44.9499 40.0955 44.3626C39.8091 43.6866 39.2928 43.1336 38.638 42.8016C37.9831 42.4695 37.2319 42.3798 36.5173 42.5483Z" fill="#F0FAFA"/>
</svg>
