<svg width="48" height="46" viewBox="0 0 48 46" fill="none" xmlns="http://www.w3.org/2000/svg">
<path d="M2.13459 39.5294H27.5294C28.6969 39.5294 29.6471 38.5793 29.6471 37.4118V10.5882C29.6471 10.5558 29.6329 10.5275 29.6287 10.4965C29.6248 10.4669 29.6186 10.4376 29.6104 10.4089C29.5827 10.2886 29.5232 10.1779 29.4381 10.0885L19.5572 0.207529C19.4452 0.101759 19.3021 0.0349199 19.1492 0.0169412C19.1195 0.0141176 19.0913 0 19.0588 0H2.12612C0.954353 0 0 0.950118 0 2.11765V37.4118C0 38.5793 0.957176 39.5294 2.13459 39.5294ZM19.7647 2.40988L27.2372 9.88235H20.4706C20.2834 9.88235 20.1038 9.80798 19.9715 9.6756C19.8391 9.54323 19.7647 9.36368 19.7647 9.17647V2.40988ZM1.41176 2.11765C1.41176 1.728 1.73224 1.41176 2.12612 1.41176H18.3529V9.17647C18.3529 10.344 19.3031 11.2941 20.4706 11.2941H28.2353V37.4118C28.2353 37.599 28.1609 37.7785 28.0285 37.9109C27.8962 38.0433 27.7166 38.1176 27.5294 38.1176H2.13459C2.04078 38.1188 1.94766 38.1014 1.86056 38.0665C1.77347 38.0317 1.69409 37.98 1.62697 37.9144C1.55985 37.8489 1.50629 37.7707 1.46937 37.6845C1.43244 37.5983 1.41287 37.5056 1.41176 37.4118V2.11765Z" fill="#B80000"/>
<path d="M6.35286 16.9411H23.294C23.4812 16.9411 23.6608 16.8668 23.7932 16.7344C23.9255 16.602 23.9999 16.4225 23.9999 16.2353C23.9999 16.0481 23.9255 15.8685 23.7932 15.7361C23.6608 15.6038 23.4812 15.5294 23.294 15.5294H6.35286C6.16564 15.5294 5.9861 15.6038 5.85372 15.7361C5.72134 15.8685 5.64697 16.0481 5.64697 16.2353C5.64697 16.4225 5.72134 16.602 5.85372 16.7344C5.9861 16.8668 6.16564 16.9411 6.35286 16.9411V16.9411ZM6.35286 22.5882H23.294C23.4812 22.5882 23.6608 22.5138 23.7932 22.3815C23.9255 22.2491 23.9999 22.0695 23.9999 21.8823C23.9999 21.6951 23.9255 21.5156 23.7932 21.3832C23.6608 21.2508 23.4812 21.1764 23.294 21.1764H6.35286C6.16564 21.1764 5.9861 21.2508 5.85372 21.3832C5.72134 21.5156 5.64697 21.6951 5.64697 21.8823C5.64697 22.0695 5.72134 22.2491 5.85372 22.3815C5.9861 22.5138 6.16564 22.5882 6.35286 22.5882V22.5882ZM6.35286 11.2941H13.4117C13.5989 11.2941 13.7784 11.2197 13.9108 11.0873C14.0432 10.955 14.1176 10.7754 14.1176 10.5882C14.1176 10.401 14.0432 10.2215 13.9108 10.0891C13.7784 9.95669 13.5989 9.88232 13.4117 9.88232H6.35286C6.16564 9.88232 5.9861 9.95669 5.85372 10.0891C5.72134 10.2215 5.64697 10.401 5.64697 10.5882C5.64697 10.7754 5.72134 10.955 5.85372 11.0873C5.9861 11.2197 6.16564 11.2941 6.35286 11.2941V11.2941ZM6.35286 28.2353H23.294C23.4812 28.2353 23.6608 28.1609 23.7932 28.0285C23.9255 27.8961 23.9999 27.7166 23.9999 27.5294C23.9999 27.3422 23.9255 27.1626 23.7932 27.0302C23.6608 26.8979 23.4812 26.8235 23.294 26.8235H6.35286C6.16564 26.8235 5.9861 26.8979 5.85372 27.0302C5.72134 27.1626 5.64697 27.3422 5.64697 27.5294C5.64697 27.7166 5.72134 27.8961 5.85372 28.0285C5.9861 28.1609 6.16564 28.2353 6.35286 28.2353V28.2353ZM6.35286 33.8823H23.294C23.4812 33.8823 23.6608 33.808 23.7932 33.6756C23.9255 33.5432 23.9999 33.3637 23.9999 33.1764C23.9999 32.9892 23.9255 32.8097 23.7932 32.6773C23.6608 32.5449 23.4812 32.4706 23.294 32.4706H6.35286C6.16564 32.4706 5.9861 32.5449 5.85372 32.6773C5.72134 32.8097 5.64697 32.9892 5.64697 33.1764C5.64697 33.3637 5.72134 33.5432 5.85372 33.6756C5.9861 33.808 6.16564 33.8823 6.35286 33.8823V33.8823Z" fill="#B80000"/>
<path d="M30.353 7.05886H36.706V14.8236C36.706 15.9911 37.6561 16.9412 38.8236 16.9412H46.5883V43.0589C46.5883 43.2461 46.514 43.4256 46.3816 43.558C46.2492 43.6904 46.0697 43.7647 45.8824 43.7647H20.4876C20.3938 43.7659 20.3007 43.7485 20.2136 43.7136C20.1265 43.6788 20.0471 43.6271 19.98 43.5615C19.9129 43.496 19.8593 43.4178 19.8224 43.3316C19.7855 43.2453 19.7659 43.1527 19.7648 43.0589V41.6471C19.7648 41.4599 19.6904 41.2803 19.558 41.148C19.4257 41.0156 19.2461 40.9412 19.0589 40.9412C18.8717 40.9412 18.6922 41.0156 18.5598 41.148C18.4274 41.2803 18.353 41.4599 18.353 41.6471V43.0589C18.353 44.2264 19.3102 45.1765 20.4876 45.1765H45.8824C47.05 45.1765 48.0001 44.2264 48.0001 43.0589V16.2353C48.0001 16.2029 47.986 16.1746 47.9817 16.1436C47.9778 16.114 47.9717 16.0847 47.9634 16.056C47.9357 15.9357 47.8762 15.825 47.7911 15.7356L37.9102 5.85462C37.799 5.74797 37.6554 5.68141 37.5022 5.66545C37.4726 5.66121 37.4443 5.64709 37.4119 5.64709H30.353C30.1658 5.64709 29.9863 5.72146 29.8539 5.85384C29.7215 5.98622 29.6471 6.16577 29.6471 6.35298C29.6471 6.54019 29.7215 6.71973 29.8539 6.85211C29.9863 6.98449 30.1658 7.05886 30.353 7.05886ZM38.8236 15.5294C38.6364 15.5294 38.4569 15.4551 38.3245 15.3227C38.1921 15.1903 38.1177 15.0108 38.1177 14.8236V8.05698L45.5902 15.5294H38.8236Z" fill="#B80000"/>
<path d="M33.1766 22.5883H41.6472C41.8344 22.5883 42.0139 22.5139 42.1463 22.3815C42.2787 22.2492 42.3531 22.0696 42.3531 21.8824C42.3531 21.6952 42.2787 21.5156 42.1463 21.3833C42.0139 21.2509 41.8344 21.1765 41.6472 21.1765H33.1766C32.9894 21.1765 32.8098 21.2509 32.6775 21.3833C32.5451 21.5156 32.4707 21.6952 32.4707 21.8824C32.4707 22.0696 32.5451 22.2492 32.6775 22.3815C32.8098 22.5139 32.9894 22.5883 33.1766 22.5883ZM33.1766 28.2353H41.6472C41.8344 28.2353 42.0139 28.161 42.1463 28.0286C42.2787 27.8962 42.3531 27.7167 42.3531 27.5295C42.3531 27.3422 42.2787 27.1627 42.1463 27.0303C42.0139 26.8979 41.8344 26.8236 41.6472 26.8236H33.1766C32.9894 26.8236 32.8098 26.8979 32.6775 27.0303C32.5451 27.1627 32.4707 27.3422 32.4707 27.5295C32.4707 27.7167 32.5451 27.8962 32.6775 28.0286C32.8098 28.161 32.9894 28.2353 33.1766 28.2353ZM33.1766 33.8824H41.6472C41.8344 33.8824 42.0139 33.808 42.1463 33.6756C42.2787 33.5433 42.3531 33.3637 42.3531 33.1765C42.3531 32.9893 42.2787 32.8098 42.1463 32.6774C42.0139 32.545 41.8344 32.4706 41.6472 32.4706H33.1766C32.9894 32.4706 32.8098 32.545 32.6775 32.6774C32.5451 32.8098 32.4707 32.9893 32.4707 33.1765C32.4707 33.3637 32.5451 33.5433 32.6775 33.6756C32.8098 33.808 32.9894 33.8824 33.1766 33.8824ZM33.1766 39.5295H41.6472C41.8344 39.5295 42.0139 39.4551 42.1463 39.3227C42.2787 39.1903 42.3531 39.0108 42.3531 38.8236C42.3531 38.6364 42.2787 38.4568 42.1463 38.3244C42.0139 38.1921 41.8344 38.1177 41.6472 38.1177H33.1766C32.9894 38.1177 32.8098 38.1921 32.6775 38.3244C32.5451 38.4568 32.4707 38.6364 32.4707 38.8236C32.4707 39.0108 32.5451 39.1903 32.6775 39.3227C32.8098 39.4551 32.9894 39.5295 33.1766 39.5295Z" fill="#B80000"/>
</svg>
