<svg width="32" height="32" viewBox="0 0 32 32" fill="none" xmlns="http://www.w3.org/2000/svg">
<path d="M30.72 0H1.28C0.572 0 0 0.572 0 1.28V30.72C0 31.428 0.572 32 1.28 32H30.72C31.428 32 32 31.428 32 30.72V1.28C32 0.572 31.428 0 30.72 0ZM23.68 16.96C23.68 17.136 23.536 17.28 23.36 17.28H17.28V23.36C17.28 23.536 17.136 23.68 16.96 23.68H15.04C14.864 23.68 14.72 23.536 14.72 23.36V17.28H8.64C8.464 17.28 8.32 17.136 8.32 16.96V15.04C8.32 14.864 8.464 14.72 8.64 14.72H14.72V8.64C14.72 8.464 14.864 8.32 15.04 8.32H16.96C17.136 8.32 17.28 8.464 17.28 8.64V14.72H23.36C23.536 14.72 23.68 14.864 23.68 15.04V16.96Z" fill="#F0FAFA"/>
</svg>
