<svg width="24" height="15" viewBox="0 0 24 15" fill="none" xmlns="http://www.w3.org/2000/svg">
<path d="M12 14.4001C5.9496 14.4085 0 11.1769 0 7.2001C0 3.2233 5.9808 -0.0203043 12 9.57024e-05C18.0192 0.0204957 24 3.2233 24 7.2001C24 11.1769 18.0504 14.3917 12 14.4001ZM12 12.0001C13.273 12.0001 14.4939 11.4944 15.3941 10.5942C16.2943 9.69403 16.8 8.47314 16.8 7.2001C16.8 5.92706 16.2943 4.70616 15.3941 3.80598C14.4939 2.90581 13.273 2.4001 12 2.4001C10.727 2.4001 9.50606 2.90581 8.60589 3.80598C7.70571 4.70616 7.2 5.92706 7.2 7.2001C7.2 8.47314 7.70571 9.69403 8.60589 10.5942C9.50606 11.4944 10.727 12.0001 12 12.0001V12.0001ZM12 9.6001C11.3635 9.6001 10.753 9.34724 10.3029 8.89715C9.85286 8.44706 9.6 7.83662 9.6 7.2001C9.6 6.56358 9.85286 5.95313 10.3029 5.50304C10.753 5.05295 11.3635 4.8001 12 4.8001C12.6365 4.8001 13.247 5.05295 13.6971 5.50304C14.1471 5.95313 14.4 6.56358 14.4 7.2001C14.4 7.83662 14.1471 8.44706 13.6971 8.89715C13.247 9.34724 12.6365 9.6001 12 9.6001Z" fill="#001A23"/>
</svg>
