<svg width="32" height="33" viewBox="0 0 32 33" fill="none" xmlns="http://www.w3.org/2000/svg">
<path d="M5.84301 0C2.60624 0 0 2.68413 0 6.01763V26.9387C0 30.2722 2.60624 32.9564 5.84301 32.9564H16.853V20.0725H13.545V15.4339H16.853V11.4709C16.853 8.35733 18.8076 5.49857 23.31 5.49857C25.133 5.49857 26.481 5.67881 26.481 5.67881L26.375 10.0105C26.375 10.0105 25.0002 9.99714 23.5 9.99714C21.8764 9.99714 21.616 10.7676 21.616 12.0466V15.4339H26.504L26.291 20.0725H21.616V32.9564H26.157C29.3938 32.9564 32 30.2723 32 26.9388V6.01766C32 2.68416 29.3938 3.29563e-05 26.157 3.29563e-05H5.84298L5.84301 0Z" fill="black"/>
</svg>
