<svg width="32" height="33" viewBox="0 0 32 33" fill="none" xmlns="http://www.w3.org/2000/svg">
<path fill-rule="evenodd" clip-rule="evenodd" d="M9.40364 0.0988692C11.1098 0.0179762 11.6538 0 16 0C20.3462 0 20.8902 0.0194742 22.5949 0.0988692C24.2996 0.178264 25.4633 0.458394 26.4815 0.864357C27.5476 1.27931 28.5149 1.92795 29.3149 2.76684C30.1295 3.58925 30.7578 4.58394 31.1593 5.68348C31.5549 6.7321 31.8255 7.93051 31.904 9.68319C31.9825 11.4434 32 12.0036 32 16.4782C32 20.9543 31.9811 21.5145 31.904 23.2717C31.8269 25.0244 31.5549 26.2228 31.1593 27.2714C30.7578 28.3711 30.1284 29.3675 29.3149 30.1911C28.5149 31.03 27.5476 31.6771 26.4815 32.0906C25.4633 32.498 24.2996 32.7766 22.5978 32.8575C20.8902 32.9384 20.3462 32.9564 16 32.9564C11.6538 32.9564 11.1098 32.9369 9.40364 32.8575C7.70182 32.7781 6.53818 32.498 5.52 32.0906C4.45225 31.677 3.48483 31.0288 2.68509 30.1911C1.8711 29.3682 1.24119 28.3723 0.839273 27.2729C0.445091 26.2243 0.174545 25.0259 0.096 23.2732C0.0174545 21.513 0 20.9528 0 16.4782C0 12.0021 0.0189091 11.4419 0.096 9.68619C0.173091 7.93051 0.445091 6.7321 0.839273 5.68348C1.24178 4.58406 1.87217 3.58822 2.68655 2.76534C3.48515 1.9272 4.4516 1.27847 5.51855 0.864357C6.53673 0.458394 7.70036 0.179762 9.40218 0.0988692H9.40364ZM22.4655 3.06495C20.7782 2.98555 20.272 2.96907 16 2.96907C11.728 2.96907 11.2218 2.98555 9.53455 3.06495C7.97382 3.13835 7.12727 3.40649 6.56291 3.6327C5.81673 3.9323 5.28291 4.28733 4.72291 4.86407C4.19207 5.39594 3.78354 6.04343 3.52727 6.75906C3.30764 7.34029 3.04727 8.21214 2.976 9.81951C2.89891 11.5572 2.88291 12.0785 2.88291 16.4782C2.88291 20.8779 2.89891 21.3992 2.976 23.1369C3.04727 24.7443 3.30764 25.6161 3.52727 26.1974C3.78327 26.9119 4.192 27.5605 4.72291 28.0923C5.23927 28.6391 5.86909 29.0601 6.56291 29.3237C7.12727 29.5499 7.97382 29.8181 9.53455 29.8915C11.2218 29.9709 11.7265 29.9873 16 29.9873C20.2735 29.9873 20.7782 29.9709 22.4655 29.8915C24.0262 29.8181 24.8727 29.5499 25.4371 29.3237C26.1833 29.0241 26.7171 28.6691 27.2771 28.0923C27.808 27.5605 28.2167 26.9119 28.4727 26.1974C28.6924 25.6161 28.9527 24.7443 29.024 23.1369C29.1011 21.3992 29.1171 20.8779 29.1171 16.4782C29.1171 12.0785 29.1011 11.5572 29.024 9.81951C28.9527 8.21214 28.6924 7.34029 28.4727 6.75906C28.1818 5.99058 27.8371 5.4408 27.2771 4.86407C26.7606 4.3174 26.1319 3.89666 25.4371 3.6327C24.8727 3.40649 24.0262 3.13835 22.4655 3.06495ZM13.9564 21.558C15.0977 22.0473 16.3686 22.1133 17.5519 21.7448C18.7352 21.3763 19.7577 20.5961 20.4445 19.5375C21.1314 18.4789 21.4401 17.2075 21.3179 15.9406C21.1957 14.6736 20.6502 13.4896 19.7745 12.5908C19.2163 12.0163 18.5414 11.5764 17.7983 11.3028C17.0552 11.0291 16.2624 10.9286 15.4771 11.0084C14.6917 11.0881 13.9333 11.3463 13.2564 11.7641C12.5796 12.182 12.0011 12.7493 11.5626 13.425C11.1242 14.1008 10.8366 14.8683 10.7208 15.6722C10.6049 16.4762 10.6635 17.2966 10.8924 18.0744C11.1214 18.8522 11.5149 19.568 12.0447 20.1704C12.5745 20.7728 13.2274 21.2467 13.9564 21.558ZM10.1847 10.4891C10.9484 9.70263 11.855 9.07875 12.8528 8.6531C13.8506 8.22745 14.92 8.00837 16 8.00837C17.08 8.00837 18.1494 8.22745 19.1472 8.6531C20.145 9.07875 21.0516 9.70263 21.8153 10.4891C22.5789 11.2756 23.1847 12.2093 23.598 13.2369C24.0113 14.2645 24.224 15.3659 24.224 16.4782C24.224 17.5905 24.0113 18.6919 23.598 19.7195C23.1847 20.7471 22.5789 21.6808 21.8153 22.4673C20.273 24.0557 18.1812 24.948 16 24.948C13.8188 24.948 11.727 24.0557 10.1847 22.4673C8.64242 20.8789 7.77596 18.7245 7.77596 16.4782C7.77596 14.2319 8.64242 12.0775 10.1847 10.4891ZM26.048 9.26974C26.2372 9.08589 26.3887 8.8648 26.4935 8.61956C26.5983 8.37432 26.6543 8.10993 26.6581 7.84202C26.6619 7.57412 26.6134 7.30816 26.5156 7.05988C26.4178 6.8116 26.2726 6.58606 26.0887 6.3966C25.9047 6.20714 25.6857 6.05762 25.4446 5.9569C25.2036 5.85617 24.9453 5.80628 24.6852 5.81019C24.4251 5.8141 24.1683 5.87172 23.9302 5.97964C23.6921 6.08756 23.4774 6.24359 23.2989 6.43848C22.9517 6.81753 22.7616 7.321 22.769 7.84202C22.7764 8.36305 22.9806 8.8606 23.3384 9.22906C23.6962 9.59752 24.1793 9.80787 24.6852 9.81547C25.1911 9.82306 25.68 9.6273 26.048 9.26974Z" fill="black"/>
</svg>
