<svg width="48" height="62" viewBox="0 0 48 62" fill="none" xmlns="http://www.w3.org/2000/svg">
<path d="M47.3591 15.3205C47.7682 15.7295 48 16.2818 48 16.8614V58.9091C48 60.1159 47.025 61.0909 45.8182 61.0909H2.18182C0.975 61.0909 0 60.1159 0 58.9091V2.18182C0 0.975 0.975 0 2.18182 0H31.1386C31.7182 0 32.2773 0.231818 32.6864 0.640909L47.3591 15.3205ZM42.9682 17.8636L30.1364 5.03182V17.8636H42.9682ZM32.265 39.0859C31.23 39.0518 30.1295 39.1316 28.8798 39.2877C27.223 38.2657 26.1075 36.8618 25.3152 34.7993L25.3882 34.5007L25.4727 34.1475C25.7659 32.9114 25.9234 32.0093 25.9705 31.0998C26.0059 30.4132 25.9677 29.7798 25.8457 29.1927C25.6207 27.9252 24.7241 27.1841 23.5943 27.1384C22.5409 27.0955 21.5727 27.6839 21.3252 28.5955C20.9223 30.0695 21.1582 32.0093 22.0125 35.3175C20.9243 37.9118 19.4864 40.9534 18.5216 42.6498C17.2336 43.3139 16.2307 43.918 15.388 44.5875C14.2766 45.4718 13.5825 46.3807 13.3916 47.3352C13.2989 47.7777 13.4386 48.3559 13.757 48.8298C14.1184 49.367 14.6625 49.7161 15.315 49.7666C16.9616 49.8941 18.9852 48.1964 21.2195 44.3625C21.4439 44.2875 21.6811 44.2084 21.9709 44.1102L22.7823 43.8361C23.2957 43.663 23.668 43.5389 24.0361 43.4195C25.6316 42.9 26.8384 42.572 27.9361 42.3852C29.8439 43.4066 32.0489 44.0761 33.5339 44.0761C34.7598 44.0761 35.5882 43.4407 35.8875 42.4405C36.15 41.5623 35.942 40.5436 35.3775 39.9805C34.7939 39.407 33.7207 39.133 32.265 39.0859ZM15.3566 47.8418V47.8173L15.3655 47.7941C15.4652 47.5362 15.5933 47.2901 15.7473 47.0605C16.0391 46.6118 16.4407 46.14 16.9384 45.6375C17.2057 45.3682 17.4839 45.1057 17.8105 44.8111C17.8834 44.7457 18.3498 44.3305 18.437 44.2486L19.1986 43.5395L18.645 44.4211C17.805 45.7602 17.0455 46.7243 16.395 47.353C16.1557 47.5848 15.945 47.7552 15.7745 47.865C15.7183 47.9026 15.6587 47.935 15.5966 47.9618C15.5686 47.9734 15.5441 47.9802 15.5195 47.9823C15.4936 47.9856 15.4673 47.982 15.4432 47.972C15.4175 47.9613 15.3956 47.9432 15.3802 47.92C15.3648 47.8969 15.3566 47.8696 15.3566 47.8418ZM23.9434 32.9591L23.7893 33.2318L23.6939 32.9332C23.4825 32.263 23.327 31.2532 23.2841 30.3423C23.235 29.3059 23.3175 28.6841 23.6448 28.6841C24.1043 28.6841 24.315 29.4205 24.3314 30.5284C24.3464 31.502 24.193 32.5152 23.9427 32.9591H23.9434ZM23.5473 36.945L23.6516 36.6689L23.7941 36.928C24.5911 38.3761 25.6255 39.5843 26.7627 40.4264L27.0082 40.6077L26.7089 40.6691C25.5955 40.8995 24.5584 41.2459 23.1402 41.818C23.2882 41.758 21.6661 42.422 21.2557 42.5795L20.8977 42.7166L21.0886 42.3839C21.9307 40.918 22.7086 39.1575 23.5466 36.945H23.5473ZM34.2941 42.1445C33.7582 42.3559 32.6045 42.167 30.5734 41.2998L30.058 41.0802L30.617 41.0393C32.2057 40.9214 33.3307 41.0086 33.9866 41.2486C34.2661 41.3509 34.4523 41.4798 34.5348 41.627C34.5782 41.6968 34.5928 41.7806 34.5755 41.8609C34.5582 41.9412 34.5103 42.0116 34.442 42.0573C34.3987 42.0955 34.3485 42.1251 34.2941 42.1445Z" fill="#FF0000"/>
</svg>
