<svg width="49" height="34" viewBox="0 0 49 34" fill="none" xmlns="http://www.w3.org/2000/svg">
<path d="M21.0957 33.109C21.0957 33.109 18.0957 33.109 18.0957 30.3499C18.0957 27.5908 21.0957 19.3136 33.0957 19.3136C45.0957 19.3136 48.0957 27.5908 48.0957 30.3499C48.0957 33.109 45.0957 33.109 45.0957 33.109H21.0957ZM33.0957 16.5545C35.4827 16.5545 37.7718 15.6824 39.4597 14.1301C41.1475 12.5779 42.0957 10.4725 42.0957 8.27725C42.0957 6.08198 41.1475 3.97663 39.4597 2.42435C37.7718 0.872065 35.4827 0 33.0957 0C30.7088 0 28.4196 0.872065 26.7317 2.42435C25.0439 3.97663 24.0957 6.08198 24.0957 8.27725C24.0957 10.4725 25.0439 12.5779 26.7317 14.1301C28.4196 15.6824 30.7088 16.5545 33.0957 16.5545V16.5545Z" fill="#B80000"/>
<path fill-rule="evenodd" clip-rule="evenodd" d="M15.7437 33.1088C15.299 32.2475 15.0772 31.3031 15.0957 30.3498C15.0957 26.6112 17.1357 22.7623 20.9037 20.086C19.023 19.553 17.0635 19.2924 15.0957 19.3134C3.0957 19.3134 0.0957031 27.5907 0.0957031 30.3498C0.0957031 33.1088 3.0957 33.1088 3.0957 33.1088H15.7437Z" fill="#B80000"/>
<path d="M13.5957 16.5544C15.5848 16.5544 17.4925 15.8277 18.899 14.5342C20.3055 13.2406 21.0957 11.4861 21.0957 9.65674C21.0957 7.82735 20.3055 6.0729 18.899 4.77932C17.4925 3.48575 15.5848 2.75903 13.5957 2.75903C11.6066 2.75903 9.69892 3.48575 8.2924 4.77932C6.88588 6.0729 6.0957 7.82735 6.0957 9.65674C6.0957 11.4861 6.88588 13.2406 8.2924 14.5342C9.69892 15.8277 11.6066 16.5544 13.5957 16.5544V16.5544Z" fill="#B80000"/>
</svg>
