<svg width="32" height="32" viewBox="0 0 32 32" fill="none" xmlns="http://www.w3.org/2000/svg">
<path d="M26 0C27.6528 0 29.066 0.586806 30.2396 1.76042C31.4132 2.93403 32 4.34722 32 6V26C32 27.6528 31.4132 29.066 30.2396 30.2396C29.066 31.4132 27.6528 32 26 32H10.8958C12.0764 30.3056 12.8264 28.8472 13.1458 27.625C13.2708 27.1528 13.6389 25.7014 14.25 23.2708C14.5417 23.8125 15.0521 24.2778 15.7813 24.6667C16.5104 25.0556 17.2917 25.25 18.125 25.25C20.6389 25.25 22.691 24.2257 24.2813 22.1771C25.8715 20.1285 26.6667 17.5347 26.6667 14.3958C26.6667 13.2292 26.4236 12.1007 25.9375 11.0104C25.4514 9.92014 24.7813 8.95486 23.9271 8.11458C23.0729 7.27431 22.0139 6.60069 20.75 6.09375C19.4861 5.58681 18.1181 5.33333 16.6458 5.33333C15.2014 5.33333 13.8507 5.53125 12.5938 5.92708C11.3368 6.32292 10.2743 6.85417 9.40625 7.52083C8.53819 8.1875 7.79167 8.94792 7.16667 9.80208C6.54167 10.6563 6.07986 11.5451 5.78125 12.4688C5.48264 13.3924 5.33333 14.3125 5.33333 15.2292C5.33333 16.6458 5.60764 17.8958 6.15625 18.9792C6.70486 20.0625 7.51389 20.8264 8.58333 21.2708C8.76389 21.3403 8.92708 21.3403 9.07292 21.2708C9.21875 21.2014 9.31944 21.0694 9.375 20.875C9.51389 20.2639 9.61806 19.8403 9.6875 19.6042C9.77083 19.2847 9.69444 18.9931 9.45833 18.7292C8.76389 17.8681 8.41667 16.8264 8.41667 15.6042C8.41667 13.5208 9.13542 11.7396 10.5729 10.2604C12.0104 8.78125 13.8889 8.04167 16.2083 8.04167C18.2778 8.04167 19.8924 8.60417 21.0521 9.72917C22.2118 10.8542 22.7917 12.3125 22.7917 14.1042C22.7917 16.4375 22.3229 18.4236 21.3854 20.0625C20.4479 21.7014 19.2431 22.5208 17.7708 22.5208C16.9375 22.5208 16.2639 22.2188 15.75 21.6146C15.2361 21.0104 15.0764 20.2917 15.2708 19.4583C15.3819 18.9861 15.566 18.3438 15.8229 17.5313C16.0799 16.7188 16.2847 16.0104 16.4375 15.4063C16.5903 14.8021 16.6667 14.2847 16.6667 13.8542C16.6667 13.1736 16.4826 12.6076 16.1146 12.1563C15.7465 11.7049 15.2222 11.4792 14.5417 11.4792C13.6944 11.4792 12.9757 11.8715 12.3854 12.6563C11.7951 13.441 11.5 14.4097 11.5 15.5625C11.5 16.5625 11.6667 17.4028 12 18.0833L9.95833 26.7083C9.625 28.0972 9.57639 29.8611 9.8125 32H6C4.34722 32 2.93403 31.4132 1.76042 30.2396C0.586806 29.066 0 27.6528 0 26V6C0 4.34722 0.586806 2.93403 1.76042 1.76042C2.93403 0.586806 4.34722 0 6 0H26Z" fill="black"/>
</svg>
