<svg width="32" height="33" viewBox="0 0 32 33" fill="none" xmlns="http://www.w3.org/2000/svg">
<path d="M13.8622 25.8116C13.5528 26.262 13.2599 26.484 12.9799 26.484C12.7933 26.484 12.6871 26.3714 12.6533 26.148C12.6399 26.1018 12.6399 25.9265 12.6399 25.5896V19.749H11.2453V26.0217C11.2453 26.5824 11.2915 26.9605 11.3684 27.2008C11.5075 27.6027 11.8177 27.7908 12.2675 27.7908C12.7804 27.7908 13.3075 27.4717 13.8617 26.8163V27.6818H15.2586V19.7494H13.8622V25.8116ZM6.17639 18.5341H7.81817V27.6818H9.37017V18.5341H11.0422V17.0355H6.17639V18.5341ZM15.6804 11.5987C16.1351 11.5987 16.3528 11.2279 16.3528 10.4859V7.11338C16.3528 6.37232 16.1351 6.00293 15.6804 6.00293C15.2253 6.00293 15.0071 6.37232 15.0071 7.11338V10.4859C15.0075 11.2274 15.2253 11.5987 15.6804 11.5987ZM19.3039 19.6524C18.7911 19.6524 18.3128 19.9417 17.8626 20.5129V17.0355H16.4666V27.6818H17.8626V26.9119C18.3284 27.5065 18.8079 27.7908 19.3039 27.7908C19.8599 27.7908 20.2333 27.4896 20.4199 26.8996C20.5128 26.5632 20.5604 26.0349 20.5604 25.3012V22.1424C20.5604 21.3917 20.5128 20.8672 20.4199 20.5482C20.2328 19.9536 19.8599 19.6524 19.3039 19.6524ZM19.1648 25.4138C19.1648 26.1301 18.9599 26.4835 18.5577 26.4835C18.3284 26.4835 18.0955 26.3709 17.8622 26.1306V21.2952C18.0955 21.0585 18.3279 20.9459 18.5577 20.9459C18.9604 20.9459 19.1648 21.313 19.1648 22.0284V25.4138ZM23.7488 19.6524C23.0368 19.6524 22.4804 19.9229 22.0777 20.4662C21.7808 20.8667 21.6462 21.4865 21.6462 22.3337V25.1131C21.6462 25.9553 21.7982 26.5819 22.0946 26.9779C22.4977 27.5194 23.0533 27.7903 23.7839 27.7903C24.5128 27.7903 25.0848 27.5061 25.4715 26.9312C25.642 26.6729 25.7534 26.3782 25.7973 26.0693C25.8097 25.9251 25.8271 25.6056 25.8271 25.1433V24.9327H24.4026C24.4026 25.5095 24.3853 25.8285 24.3724 25.9068C24.2928 26.2908 24.0919 26.4831 23.7488 26.4831C23.2697 26.4831 23.0368 26.1169 23.0368 25.3827V23.9765H25.8275V22.3333C25.8275 21.4856 25.6875 20.8663 25.3955 20.4658C25.0048 19.9224 24.4493 19.6524 23.7488 19.6524ZM24.4319 22.7805H23.0368V22.0468C23.0368 21.3135 23.2697 20.9464 23.7364 20.9464C24.1982 20.9464 24.4319 21.3135 24.4319 22.0468V22.7805Z" fill="black"/>
<path d="M28.8889 0H3.11111C1.4 0 0 1.44184 0 3.2041V29.7523C0 31.5146 1.4 32.9564 3.11111 32.9564H28.8889C30.6 32.9564 32 31.5146 32 29.7523V3.2041C32 1.44184 30.6 0 28.8889 0ZM18.9244 4.79241H20.3302V10.6934C20.3302 11.0349 20.3302 11.212 20.3476 11.2587C20.3787 11.4839 20.4889 11.5988 20.6782 11.5988C20.96 11.5988 21.2564 11.3736 21.5689 10.9186V4.79241H22.9796V12.8072H21.5689V11.933C21.0076 12.5962 20.472 12.9185 19.9578 12.9185C19.5036 12.9185 19.1902 12.7285 19.0493 12.322C18.9716 12.0799 18.9244 11.6959 18.9244 11.1301V4.79241ZM13.5969 7.40512C13.5969 6.54871 13.7387 5.92208 14.0387 5.51699C14.4289 4.96955 14.9782 4.69537 15.6804 4.69537C16.3871 4.69537 16.9356 4.96955 17.3262 5.51699C17.6213 5.92208 17.764 6.54871 17.764 7.40512V10.2133C17.764 11.0647 17.6218 11.6963 17.3262 12.0987C16.9356 12.6447 16.3876 12.9189 15.6804 12.9189C14.9778 12.9189 14.4284 12.6447 14.0387 12.0987C13.7387 11.6963 13.5969 11.0647 13.5969 10.2133V7.40512ZM9.82533 2.05154L10.936 6.27499L12.0022 2.05154H13.5836L11.7027 8.45149V12.8072H10.1382V8.45149C9.99689 7.67884 9.684 6.54826 9.18267 5.04828C8.85289 4.05043 8.50933 3.04801 8.18 2.05154H9.82533ZM27.1436 28.1585C26.8618 29.4232 25.8564 30.3561 24.6476 30.4948C21.7836 30.8243 18.8853 30.8261 16 30.8243C13.1142 30.8261 10.216 30.8243 7.35244 30.4948C6.14311 30.3556 5.13956 29.4228 4.85733 28.1585C4.45511 26.3569 4.45511 24.3905 4.45511 22.5367C4.45511 20.6811 4.45956 18.716 4.86222 16.914C5.144 15.6497 6.148 14.7173 7.35733 14.5782C10.2209 14.2477 13.1191 14.2468 16.0049 14.2477C18.8902 14.2468 21.7884 14.2477 24.6524 14.5782C25.8609 14.7173 26.8658 15.6497 27.148 16.914C27.5502 18.7165 27.548 20.6811 27.548 22.5367C27.5484 24.3905 27.5462 26.3569 27.1436 28.1585Z" fill="black"/>
</svg>
